<?xml version="1.0" encoding="UTF-8"?>
<svg version="1.1" xmlns="http://www.w3.org/2000/svg" width="512" height="512">
<path d="M0 0 C1.01054443 -0.01270432 1.01054443 -0.01270432 2.04150391 -0.02566528 C4.26370236 -0.04902158 6.48520772 -0.05005774 8.70751953 -0.04882812 C10.25684891 -0.05593137 11.80617567 -0.06363061 13.35549927 -0.07189941 C16.60198274 -0.0853416 19.84822306 -0.08691462 23.09472656 -0.08105469 C27.24668109 -0.07516337 31.39746433 -0.10572614 35.54919243 -0.14617157 C38.74921915 -0.17207685 41.94896506 -0.1749234 45.14908218 -0.17127991 C46.67925074 -0.17296902 48.20943256 -0.18259154 49.73949814 -0.20042419 C51.88441021 -0.22266928 54.02696802 -0.21288795 56.171875 -0.1953125 C57.39002899 -0.19736694 58.60818298 -0.19942139 59.86325073 -0.20153809 C64.3426521 0.62892167 65.99437856 2.24286306 69.21533203 5.41992188 C70.82963126 8.64852034 70.8110386 11.92985841 70.21533203 15.41992188 C68.47931098 18.44500333 66.37953066 20.83782256 63.21533203 22.41992188 C55.62533203 22.41992188 48.03533203 22.41992188 40.21533203 22.41992188 C40.21533203 68.94992188 40.21533203 115.47992188 40.21533203 163.41992188 C66.28533203 163.41992188 92.35533203 163.41992188 119.21533203 163.41992188 C119.54533203 160.44992188 119.87533203 157.47992188 120.21533203 154.41992188 C124.00973673 138.36291314 131.06799384 124.61290652 142.21533203 112.41992188 C142.97458984 111.56785156 143.73384766 110.71578125 144.51611328 109.83789062 C159.10878527 94.28988823 181.24415438 83.41357586 202.58789062 82.2956543 C230.59066583 81.44509041 254.80956847 88.5387321 275.80908203 107.79882812 C291.32461795 122.73019477 300.84163784 142.05667412 303.21533203 163.41992188 C329.28533203 163.41992188 355.35533203 163.41992188 382.21533203 163.41992188 C382.21533203 116.88992187 382.21533203 70.35992187 382.21533203 22.41992188 C374.62533203 22.41992188 367.03533203 22.41992188 359.21533203 22.41992188 C352.34260476 16.69264915 352.34260476 16.69264915 351.84033203 11.66992188 C351.86474428 8.31934119 352.45931849 6.57097655 354.59033203 3.98242188 C358.48897071 0.17660793 360.40976434 0.28353935 365.77294922 0.22705078 C366.44635345 0.21887329 367.11975769 0.2106958 367.81356812 0.20227051 C370.04643872 0.17742028 372.27924567 0.16089985 374.51220703 0.14648438 C375.6566415 0.13849886 375.6566415 0.13849886 376.82419586 0.13035202 C380.86406957 0.10361952 384.9039124 0.08424671 388.94384766 0.06982422 C393.11145213 0.05319355 397.27826317 0.00843052 401.44556808 -0.04254723 C404.6541227 -0.07625125 407.86248991 -0.08775667 411.07120514 -0.09340286 C412.60698751 -0.10010882 414.14275782 -0.11531407 415.67836761 -0.13929367 C417.83294182 -0.17101372 419.9853891 -0.17097326 422.14013672 -0.16357422 C423.36432312 -0.17166107 424.58850952 -0.17974792 425.84979248 -0.18807983 C430.35563463 0.6259233 431.99404648 2.20920125 435.21533203 5.41992188 C436.84340033 9.50057375 436.69070847 13.26901049 435.02783203 17.29492188 C432.4539951 20.3125238 430.5974083 22.24278145 426.55810547 22.76049805 C425.57358398 22.7447876 424.5890625 22.72907715 423.57470703 22.71289062 C422.50478516 22.70322266 421.43486328 22.69355469 420.33251953 22.68359375 C419.22134766 22.65845703 418.11017578 22.63332031 416.96533203 22.60742188 C415.27537109 22.58711914 415.27537109 22.58711914 413.55126953 22.56640625 C410.77213939 22.53107832 407.9939784 22.48174707 405.21533203 22.41992188 C405.219941 23.22960261 405.22454996 24.03928335 405.22929859 24.87349987 C405.33969412 44.56986517 405.42244787 64.26617718 405.47439289 83.96278667 C405.50018049 93.48791803 405.53534161 103.01284294 405.5925293 112.5378418 C405.64234728 120.83932008 405.674619 129.14064887 405.68577451 137.44227248 C405.69229602 141.83847516 405.70763468 146.23425012 405.74398232 150.63031578 C405.77791664 154.76802165 405.78839033 158.90512359 405.78087044 163.0429554 C405.78224615 164.56153012 405.79219448 166.080125 405.81135941 167.59857941 C405.83626037 169.67324668 405.83025177 171.74563774 405.81660461 173.82035828 C405.82121358 174.98089564 405.82582254 176.14143301 405.83057117 177.33713818 C405.02822788 181.35744612 403.3210933 182.83917726 400.21533203 185.41992188 C396.85387653 187.10064963 393.05545735 186.54869016 389.359375 186.53344727 C388.44224731 186.53359329 387.52511963 186.53373932 386.5802002 186.53388977 C383.53928284 186.53319136 380.49842623 186.52540228 377.45751953 186.51757812 C375.3528751 186.51571369 373.24823023 186.51428991 371.14358521 186.51329041 C365.59676928 186.50946722 360.04997943 186.49963862 354.50317383 186.48858643 C348.84603223 186.47836804 343.18888644 186.47379187 337.53173828 186.46875 C326.42625622 186.45801619 315.32080037 186.44042098 304.21533203 186.41992188 C304.21533203 199.61992187 304.21533203 212.81992188 304.21533203 226.41992188 C305.86533203 226.74992188 307.51533203 227.07992187 309.21533203 227.41992188 C318.54818103 231.71878554 325.17255566 237.40610013 330.21533203 246.41992188 C334.21533203 257.41992188 334.21533203 257.41992188 334.21533203 285.41992188 C370.84533203 285.41992188 407.47533203 285.41992188 445.21533203 285.41992188 C445.21533203 277.49992187 445.21533203 269.57992188 445.21533203 261.41992188 C451.3995025 255.2357514 451.3995025 255.2357514 455.96533203 255.10742188 C459.69823679 255.13412363 461.00352043 255.2902413 464.27783203 257.29492188 C467.57375766 260.90980805 467.35405224 263.25620291 467.39233398 268.08520508 C467.40219078 269.11235123 467.40219078 269.11235123 467.4122467 270.1602478 C467.43198565 272.43040066 467.4436438 274.70048733 467.45361328 276.97070312 C467.45768881 277.74594015 467.46176434 278.52117718 467.46596336 279.31990623 C467.48682708 283.4234732 467.50112722 287.52700669 467.51049805 291.63061523 C467.52156065 295.86769317 467.5559574 300.10424566 467.59566975 304.34113789 C467.62182528 307.60026521 467.63018892 310.85926717 467.63377953 314.11849022 C467.63864862 315.68019343 467.65027192 317.24189092 467.66881752 318.80349159 C467.69318692 320.99156846 467.69224885 323.17828383 467.68530273 325.36645508 C467.69116898 326.61062698 467.69703522 327.85479889 467.70307922 329.13667297 C467.12501003 333.02792045 465.94964555 334.64690715 463.21533203 337.41992188 C459.05112782 339.89593519 455.84667772 339.5777583 451.21533203 338.41992188 C448.50965577 336.59653135 446.67804485 335.34534751 445.21533203 332.41992188 C445.21533203 324.49992187 445.21533203 316.57992188 445.21533203 308.41992188 C408.58533203 308.41992188 371.95533203 308.41992188 334.21533203 308.41992188 C334.21533203 327.88992188 334.21533203 347.35992187 334.21533203 367.41992188 C338.84951172 367.37351562 343.48369141 367.32710938 348.25830078 367.27929688 C351.19777637 367.25885366 354.13716405 367.23959772 357.07666016 367.22460938 C361.74033864 367.20071667 366.40370237 367.17248111 371.06713867 367.11816406 C374.82783261 367.07463679 378.58818893 367.0507704 382.34911537 367.0404129 C383.78244655 367.03303375 385.21575968 367.01862367 386.64894676 366.99700165 C388.65941657 366.9678823 390.67022758 366.96628725 392.6809082 366.96582031 C393.82452316 366.95693787 394.96813812 366.94805542 396.14640808 366.93890381 C399.88572338 367.52499791 401.53024785 368.80648635 404.21533203 371.41992188 C405.43034361 373.84994504 405.33849414 375.38651212 405.33558655 378.10220337 C405.33764854 379.5830114 405.33764854 379.5830114 405.3397522 381.09373474 C405.33615692 382.1805806 405.33256165 383.26742645 405.32885742 384.38720703 C405.32900345 385.52866684 405.32914948 386.67012665 405.32929993 387.84617615 C405.32860109 391.63379796 405.32081001 395.42137111 405.31298828 399.20898438 C405.311124 401.82929457 405.30970014 404.44960511 405.30870056 407.06991577 C405.30558955 413.27119348 405.29737925 419.47245362 405.28735107 425.67372358 C405.27618281 432.73288351 405.27067768 439.79204427 405.26565564 446.85121083 C405.25519646 461.37412359 405.23760145 475.89702249 405.21533203 490.41992188 C405.91094238 490.39373779 406.60655273 490.36755371 407.32324219 490.34057617 C410.49537288 490.23621239 413.66714181 490.17147127 416.84033203 490.10742188 C417.93474609 490.06552734 419.02916016 490.02363281 420.15673828 489.98046875 C429.27473626 489.84231727 429.27473626 489.84231727 432.93188477 492.796875 C435.84880707 496.1476088 436.18773919 497.9829257 436.38720703 502.27148438 C436.06986044 506.23831672 434.32147714 508.36791199 431.52609253 511.02648926 C428.38944727 512.91794613 426.08326044 512.81456606 422.43066406 512.83984375 C421.75696777 512.84831329 421.08327148 512.85678284 420.38916016 512.86550903 C418.1669617 512.88886533 415.94545634 512.88990149 413.72314453 512.88867188 C412.17381515 512.89577512 410.62448839 512.90347436 409.07516479 512.91174316 C405.82868132 512.92518535 402.582441 512.92675837 399.3359375 512.92089844 C395.18398297 512.91500712 391.03319974 512.94556989 386.88147163 512.98601532 C383.68144491 513.0119206 380.481699 513.01476715 377.28158188 513.01112366 C375.75141332 513.01281277 374.2212315 513.02243529 372.69116592 513.04026794 C370.54625385 513.06251303 368.40369604 513.0527317 366.25878906 513.03515625 C365.04063507 513.03721069 363.82248108 513.03926514 362.56741333 513.04138184 C358.08801196 512.21092208 356.4362855 510.59698069 353.21533203 507.41992188 C351.6010328 504.19132341 351.61962547 500.90998534 352.21533203 497.41992188 C353.95135308 494.39484042 356.0511334 492.00202119 359.21533203 490.41992188 C366.80533203 490.41992188 374.39533203 490.41992188 382.21533203 490.41992188 C382.21533203 457.08992188 382.21533203 423.75992188 382.21533203 389.41992188 C366.37533203 389.41992188 350.53533203 389.41992188 334.21533203 389.41992188 C334.21533203 392.05992187 334.21533203 394.69992187 334.21533203 397.41992188 C331.68287227 408.36908612 325.4906691 418.03518643 316.21533203 424.41992188 C308.36828422 428.67407982 301.85367126 430.53985206 292.92378235 430.56036377 C292.19969356 430.56333489 291.47560478 430.56630601 290.72957391 430.56936717 C288.30855505 430.57802353 285.88758582 430.57955982 283.46655273 430.58105469 C281.72836706 430.58568507 279.99018239 430.59071003 278.2519989 430.59609985 C273.53276616 430.60920557 268.81354764 430.61566537 264.09429955 430.62011051 C261.14350904 430.62304449 258.19272239 430.62714994 255.24193382 430.63161469 C246.00270236 430.64528547 236.76347976 430.65495389 227.52423888 430.65881658 C216.87190764 430.66329492 206.21970486 430.68083421 195.56741267 430.70981717 C187.3251829 430.73146146 179.0829892 430.74152234 170.84073132 430.74285769 C165.92199745 430.74390385 161.00338442 430.74977121 156.08468056 430.76767731 C151.45452267 430.78420528 146.82457583 430.78629061 142.19439888 430.7775383 C140.50056644 430.77677042 138.80672243 430.78107756 137.11291885 430.79099655 C122.9451138 430.86905886 110.93196673 429.2511541 99.98486328 419.41601562 C91.62116314 410.64433011 88.21533203 401.35271695 88.21533203 389.41992188 C72.37533203 389.41992188 56.53533203 389.41992188 40.21533203 389.41992188 C40.21533203 422.74992187 40.21533203 456.07992187 40.21533203 490.41992188 C47.80533203 490.41992188 55.39533203 490.41992188 63.21533203 490.41992188 C70.0880593 496.1471946 70.0880593 496.1471946 70.59033203 501.16992188 C70.56591979 504.52050256 69.97134557 506.2688672 67.84033203 508.85742188 C63.94169335 512.66323582 62.02089972 512.5563044 56.65771484 512.61279297 C55.98431061 512.62097046 55.31090637 512.62914795 54.61709595 512.63757324 C52.38422534 512.66242347 50.15141839 512.6789439 47.91845703 512.69335938 C46.77402256 512.70134489 46.77402256 512.70134489 45.6064682 512.70949173 C41.56659449 512.73622423 37.52675166 512.75559704 33.48681641 512.77001953 C29.31921193 512.7866502 25.1524009 512.83141323 20.98509598 512.88239098 C17.77654136 512.916095 14.56817415 512.92760042 11.35945892 512.93324661 C9.82367656 512.93995257 8.28790624 512.95515782 6.75229645 512.97913742 C4.59772225 513.01085747 2.44527496 513.01081701 0.29052734 513.00341797 C-0.93365906 513.01150482 -2.15784546 513.01959167 -3.41912842 513.02792358 C-7.92497057 512.21392045 -9.56338242 510.6306425 -12.78466797 507.41992188 C-14.41273627 503.33927 -14.26004441 499.57083326 -12.59716797 495.54492188 C-10.02333104 492.52731995 -8.16674424 490.5970623 -4.12744141 490.0793457 C-3.14291992 490.09505615 -2.15839844 490.1107666 -1.14404297 490.12695312 C-0.07412109 490.13662109 0.99580078 490.14628906 2.09814453 490.15625 C3.20931641 490.18138672 4.32048828 490.20652344 5.46533203 490.23242188 C6.59197266 490.24595703 7.71861328 490.25949219 8.87939453 490.2734375 C11.65852467 490.30876543 14.43668566 490.35809668 17.21533203 490.41992188 C17.21164486 489.82154416 17.20795769 489.22316645 17.20415878 488.60665607 C17.11579728 474.04258896 17.04961736 459.47853769 17.00808334 444.91426563 C16.98746354 437.87104983 16.95935439 430.82801302 16.91357422 423.78491211 C16.869427 416.98979175 16.84620382 410.19485762 16.83582306 403.39960289 C16.82842388 400.80520383 16.81397532 398.21081513 16.7924118 395.61649513 C16.76343749 391.98669942 16.7593737 388.35767568 16.76123047 384.7277832 C16.74684937 383.65172318 16.73246826 382.57566315 16.71765137 381.46699524 C16.75809692 374.17523953 16.75809692 374.17523953 19.11871338 370.27568054 C22.63106993 367.16682424 24.78214677 367.29746399 29.40917969 367.30639648 C30.7103775 367.30647202 32.01157532 367.30654755 33.35220337 367.30662537 C34.77793414 367.31173241 36.20366453 367.31694841 37.62939453 367.32226562 C39.08385164 367.3241304 40.53830937 367.32555402 41.99276733 367.32655334 C45.82325979 367.33037382 49.6537144 367.34020011 53.48419189 367.35125732 C58.07886981 367.36327873 62.67356037 367.36787592 67.26824951 367.37371063 C74.25063668 367.38341211 81.2329408 367.40257192 88.21533203 367.41992188 C88.21533203 347.94992187 88.21533203 328.47992188 88.21533203 308.41992188 C51.58533203 308.41992188 14.95533203 308.41992188 -22.78466797 308.41992188 C-22.78466797 316.33992188 -22.78466797 324.25992187 -22.78466797 332.41992188 C-27.60752511 338.4484933 -27.60752511 338.4484933 -31.78466797 339.41992188 C-37.08846686 339.23050049 -39.97524829 338.1172998 -43.78466797 334.41992188 C-45.23158695 331.52608391 -44.94405451 328.98786439 -44.97753906 325.75463867 C-44.98571655 325.06987457 -44.99389404 324.38511047 -45.00231934 323.67959595 C-45.02716744 321.40945308 -45.04368796 319.13937272 -45.05810547 316.86914062 C-45.06342915 316.0939036 -45.06875282 315.31866657 -45.07423782 314.51993752 C-45.10096726 310.4163779 -45.12034251 306.31284869 -45.13476562 302.20922852 C-45.15141075 297.97203016 -45.19618687 293.73561004 -45.24713707 289.49870586 C-45.28080452 286.23957941 -45.29234241 282.98063777 -45.29799271 279.72135353 C-45.30470697 278.15962592 -45.31993385 276.59791055 -45.34388351 275.03635216 C-45.37552971 272.84805404 -45.37557426 270.66185584 -45.36816406 268.47338867 C-45.37625092 267.22921677 -45.38433777 265.98504486 -45.39266968 264.70317078 C-44.6223307 260.54329005 -42.97132076 259.09644766 -39.78466797 256.41992188 C-39.45466797 256.08992187 -39.12466797 255.75992188 -38.78466797 255.41992188 C-33.87867685 254.86572658 -29.9952901 254.67872465 -25.72216797 257.29492188 C-18.27300362 265.46497309 -22.78466797 270.09823606 -22.78466797 285.41992188 C13.84533203 285.41992188 50.47533203 285.41992188 88.21533203 285.41992188 C88.21533203 276.17992187 88.21533203 266.93992187 88.21533203 257.41992188 C93.0036014 244.25218112 97.8397428 235.34459905 110.21533203 228.41992188 C113.19483744 227.07045978 114.92191637 226.41992188 118.21533203 226.41992188 C118.21533203 213.21992188 118.21533203 200.01992187 118.21533203 186.41992188 C113.98329956 186.44348755 113.98329956 186.44348755 109.66577148 186.4675293 C100.34593495 186.51722979 91.02609258 186.55037274 81.70615864 186.57535839 C76.05525518 186.59101688 70.40448745 186.61225875 64.75366211 186.64624023 C59.30070345 186.67882678 53.8478754 186.69677351 48.39482689 186.7045536 C46.3139967 186.71009835 44.23317369 186.72092581 42.15239906 186.73711205 C39.23873043 186.75887671 36.32560203 186.76188917 33.41186523 186.76049805 C32.55087219 186.77128387 31.68987915 186.7820697 30.80279541 186.79318237 C26.11916453 186.76897183 22.99741034 186.49362226 19.21533203 183.41992188 C16.83063834 179.84288133 16.96808738 178.30767384 16.974823 174.06086731 C16.97311415 173.41310276 16.9714053 172.76533821 16.96964467 172.09794444 C16.96634588 169.92366418 16.9773596 167.74969136 16.98828125 165.57543945 C16.98884528 164.01836657 16.98852896 162.46129315 16.98739624 160.90422058 C16.98682141 156.6730818 16.99859678 152.44205595 17.01254416 148.21094346 C17.02502981 143.79067444 17.0262203 139.37040295 17.02859497 134.95011902 C17.03481611 126.57785923 17.0512355 118.20565155 17.07129395 109.83341473 C17.09363323 100.30269947 17.10464142 90.77198174 17.11468482 81.24124682 C17.13560118 61.6341094 17.17078947 42.02701892 17.21533203 22.41992188 C16.51972168 22.44610596 15.82411133 22.47229004 15.10742188 22.49926758 C11.93529118 22.60363136 8.76352225 22.66837248 5.59033203 22.73242188 C3.94871094 22.79526367 3.94871094 22.79526367 2.27392578 22.859375 C-6.8440722 22.99752648 -6.8440722 22.99752648 -10.5012207 20.04296875 C-13.41814301 16.69223495 -13.75707512 14.85691805 -13.95654297 10.56835938 C-13.63919638 6.60152703 -11.89081308 4.47193176 -9.09542847 1.81335449 C-5.9587832 -0.07810238 -3.65259638 0.02527769 0 0 Z M154.84033203 133.29492188 C134.88255173 159.43504992 141.21533203 193.61749278 141.21533203 224.41992188 C187.41533203 224.41992188 233.61533203 224.41992188 281.21533203 224.41992188 C284.1453681 170.28457938 284.1453681 170.28457938 260.96533203 125.66992188 C246.66006695 111.95093814 228.8541733 104.82972724 209.08691406 105.00268555 C186.61197262 105.75342911 169.21898052 116.55154291 154.84033203 133.29492188 Z M114.21533203 255.41992188 C111.63772859 259.10758033 110.83811424 261.56771336 110.82092285 266.05451965 C110.80957306 267.17732834 110.79822327 268.30013702 110.78652954 269.45697021 C110.78946014 270.67942444 110.79239075 271.90187866 110.79541016 273.16137695 C110.78694061 274.4562352 110.77847107 275.75109344 110.76974487 277.08518982 C110.74755288 280.63082991 110.74459711 284.17623742 110.74649239 287.72193742 C110.74661223 290.68645173 110.73804218 293.65091702 110.72971487 296.61541766 C110.71048799 303.61319267 110.70759386 310.6108484 110.71435547 317.60864258 C110.72099134 324.81548154 110.69814907 332.02180805 110.66104174 339.2285431 C110.6302961 345.42577517 110.61899008 351.62284284 110.62287855 357.8201496 C110.62494159 361.51714146 110.61953699 365.21373476 110.59498596 368.91065407 C110.56848472 373.03753925 110.58248353 377.16335048 110.60009766 381.2902832 C110.58683441 382.50666473 110.57357117 383.72304626 110.55990601 384.97628784 C110.629599 392.01017713 111.39485665 397.07742193 116.21533203 402.41992188 C121.5819618 406.60589309 125.34435591 407.54425631 132.05204773 407.5670929 C133.10098236 407.57260793 133.10098236 407.57260793 134.17110759 407.57823437 C136.52008499 407.58926896 138.86901814 407.59311468 141.21801758 407.59692383 C142.9000411 407.6031887 144.58206324 407.60983552 146.26408386 407.61683655 C151.79339636 407.63787819 157.32270914 407.64823967 162.85205078 407.65820312 C164.75595425 407.66225077 166.65985758 407.6663677 168.56376076 407.67055321 C177.50932762 407.68960584 186.45488623 407.70383619 195.40046948 407.71216518 C205.72347873 407.72193547 216.04627343 407.74824925 226.36920708 407.78866607 C234.3497955 407.81883864 242.33032245 407.83363518 250.31096679 407.83694619 C255.07657088 407.83929556 259.84194578 407.84824124 264.60748863 407.87340736 C269.09320483 407.89671276 273.57854136 407.90091143 278.06430244 407.89064598 C279.70737853 407.89015109 281.35047345 407.89645767 282.99349213 407.91020203 C294.69145104 408.10054136 294.69145104 408.10054136 305.21533203 403.41992188 C309.5131454 398.8959078 311.46113894 395.17889106 311.48275757 388.94354248 C311.49128754 387.83052261 311.4998175 386.71750275 311.50860596 385.570755 C311.50769958 384.35405624 311.50679321 383.13735748 311.50585938 381.88378906 C311.5125766 380.59883041 311.51929382 379.31387177 311.5262146 377.98997498 C311.54387501 374.46704071 311.54857009 370.94420362 311.54984617 367.42122936 C311.55126872 365.21804738 311.55554037 363.01489003 311.56084061 360.81171417 C311.57934356 353.1190891 311.58751121 345.42653331 311.5859375 337.73388672 C311.58473719 330.57429504 311.60581697 323.41500536 311.63742483 316.25549006 C311.66362395 310.10075619 311.67430322 303.9461207 311.67302668 297.79133153 C311.67251795 294.11896604 311.67815074 290.44686875 311.69938278 286.77455902 C311.72244288 282.6740424 311.71322216 278.57419661 311.70117188 274.47363281 C311.71241089 273.26503098 311.7236499 272.05642914 311.73522949 270.811203 C311.67506477 262.74786651 310.7628946 256.96748444 304.84033203 251.04492188 C299.70247189 247.86434179 295.06842813 247.16913574 289.08705139 247.15922546 C288.3926599 247.15539992 287.69826841 247.15157437 286.98283476 247.1476329 C284.66840995 247.13735795 282.35423578 247.14128446 280.03979492 247.14526367 C278.37540966 247.14091416 276.71102641 247.13573021 275.04664612 247.129776 C270.534256 247.11640095 266.02194973 247.11580563 261.50954366 247.1183393 C257.73965261 247.11940995 253.96977846 247.11452326 250.19989103 247.10973388 C241.30504142 247.09864401 232.41023404 247.09819846 223.51538086 247.10424805 C214.34494203 247.11028922 205.17465657 247.09797198 196.00424391 247.07667798 C188.12466329 247.05905537 180.24513146 247.05306163 172.36553186 247.05631572 C167.66209805 247.05812755 162.95877368 247.05550227 158.25535774 247.04160118 C153.8320146 247.02901662 149.40891042 247.03097287 144.98557091 247.04401207 C143.36466007 247.04637597 141.74373239 247.04364983 140.12284088 247.03538895 C137.90515021 247.0249037 135.68825876 247.03303555 133.47059631 247.04570007 C132.23120332 247.04553233 130.99181032 247.04536459 129.71485996 247.04519176 C123.10287326 247.75320455 118.58124346 250.32635854 114.21533203 255.41992188 Z " fill="#32CBCB" transform="translate(44.78466796875,-0.419921875)"/>
<path d="M0 0 C0.67340424 -0.00817749 1.34680847 -0.01635498 2.0406189 -0.02478027 C4.2734895 -0.0496305 6.50629645 -0.06615093 8.73925781 -0.08056641 C9.88369228 -0.08855192 9.88369228 -0.08855192 11.05124664 -0.09669876 C15.09112036 -0.12343126 19.13096318 -0.14280407 23.17089844 -0.15722656 C27.33850292 -0.17385723 31.50531395 -0.21862026 35.67261887 -0.26959801 C38.88117348 -0.30330203 42.08954069 -0.31480745 45.29825592 -0.32045364 C46.83403829 -0.3271596 48.36980861 -0.34236485 49.9054184 -0.36634445 C52.0599926 -0.3980645 54.21243988 -0.39802404 56.3671875 -0.390625 C58.2034671 -0.40275528 58.2034671 -0.40275528 60.07684326 -0.41513062 C64.58268541 0.39887251 66.22109726 1.98215047 69.44238281 5.19287109 C71.07045111 9.27352297 70.91775926 13.0419597 69.25488281 17.06787109 C66.68104588 20.08547302 64.82445908 22.01573067 60.78515625 22.53344727 C59.80063477 22.51773682 58.81611328 22.50202637 57.80175781 22.48583984 C56.196875 22.47133789 56.196875 22.47133789 54.55957031 22.45654297 C53.44839844 22.43140625 52.33722656 22.40626953 51.19238281 22.38037109 C49.50242187 22.36006836 49.50242187 22.36006836 47.77832031 22.33935547 C44.99919017 22.30402754 42.22102918 22.25469629 39.44238281 22.19287109 C39.44699178 23.00255183 39.45160074 23.81223257 39.45634937 24.64644909 C39.5667449 44.34281439 39.64949866 64.0391264 39.70144367 83.73573589 C39.72723128 93.26086725 39.76239239 102.78579216 39.81958008 112.31079102 C39.86939806 120.6122693 39.90166978 128.91359809 39.91282529 137.2152217 C39.9193468 141.61142438 39.93468546 146.00719934 39.9710331 150.403265 C40.00496742 154.54097087 40.01544111 158.67807281 40.00792122 162.81590462 C40.00929693 164.33447934 40.01924526 165.85307422 40.03841019 167.37152863 C40.06331115 169.4461959 40.05730255 171.51858696 40.0436554 173.5933075 C40.04826436 174.75384486 40.05287333 175.91438223 40.05762196 177.11008739 C39.25527867 181.13039534 37.54814408 182.61212648 34.44238281 185.19287109 C31.05902626 186.88454937 27.21550271 186.32157878 23.49462891 186.30639648 C22.10430702 186.30661552 22.10430702 186.30661552 20.68589783 186.30683899 C17.61251511 186.30614055 14.53919249 186.29835137 11.46582031 186.29052734 C9.33875563 186.28866292 7.21169051 186.28723913 5.08462524 186.28623962 C-0.52137431 186.28241638 -6.12734806 186.27258772 -11.7333374 186.26153564 C-17.45080211 186.25131739 -23.16827098 186.24674111 -28.88574219 186.24169922 C-40.10971369 186.23096529 -51.33365926 186.21337003 -62.55761719 186.19287109 C-62.55761719 178.60287109 -62.55761719 171.01287109 -62.55761719 163.19287109 C-36.48761719 163.19287109 -10.41761719 163.19287109 16.44238281 163.19287109 C16.44238281 116.66287109 16.44238281 70.13287109 16.44238281 22.19287109 C8.85238281 22.19287109 1.26238281 22.19287109 -6.55761719 22.19287109 C-13.43034446 16.46559837 -13.43034446 16.46559837 -13.93261719 11.44287109 C-13.90820494 8.09229041 -13.31363072 6.34392577 -11.18261719 3.75537109 C-7.28397851 -0.05044285 -5.36318488 0.05648857 0 0 Z " fill="#000000" transform="translate(410.5576171875,-0.19287109375)"/>
<path d="M0 0 C1.01054443 -0.01270432 1.01054443 -0.01270432 2.04150391 -0.02566528 C4.26370236 -0.04902158 6.48520772 -0.05005774 8.70751953 -0.04882812 C10.25684891 -0.05593137 11.80617567 -0.06363061 13.35549927 -0.07189941 C16.60198274 -0.0853416 19.84822306 -0.08691462 23.09472656 -0.08105469 C27.24668109 -0.07516337 31.39746433 -0.10572614 35.54919243 -0.14617157 C38.74921915 -0.17207685 41.94896506 -0.1749234 45.14908218 -0.17127991 C46.67925074 -0.17296902 48.20943256 -0.18259154 49.73949814 -0.20042419 C51.88441021 -0.22266928 54.02696802 -0.21288795 56.171875 -0.1953125 C57.39002899 -0.19736694 58.60818298 -0.19942139 59.86325073 -0.20153809 C64.3426521 0.62892167 65.99437856 2.24286306 69.21533203 5.41992188 C70.82963126 8.64852034 70.8110386 11.92985841 70.21533203 15.41992188 C68.47931098 18.44500333 66.37953066 20.83782256 63.21533203 22.41992188 C55.62533203 22.41992188 48.03533203 22.41992188 40.21533203 22.41992188 C40.21533203 68.94992188 40.21533203 115.47992188 40.21533203 163.41992188 C66.28533203 163.41992188 92.35533203 163.41992188 119.21533203 163.41992188 C119.21533203 171.00992188 119.21533203 178.59992188 119.21533203 186.41992188 C106.91523059 186.48768624 94.61525304 186.54273152 82.31500721 186.57535839 C76.60357035 186.59101727 70.89226778 186.61225984 65.1809082 186.64624023 C59.669595 186.6788254 54.158411 186.69677322 48.6470089 186.7045536 C46.54385023 186.7100986 44.44069868 186.72092653 42.33759499 186.73711205 C39.39279498 186.75887485 36.44852954 186.76188925 33.50366211 186.76049805 C32.63331833 186.77128387 31.76297455 186.7820697 30.86625671 186.79318237 C26.16270537 186.76912261 23.01055548 186.51296086 19.21533203 183.41992188 C16.83063834 179.84288133 16.96808738 178.30767384 16.974823 174.06086731 C16.97311415 173.41310276 16.9714053 172.76533821 16.96964467 172.09794444 C16.96634588 169.92366418 16.9773596 167.74969136 16.98828125 165.57543945 C16.98884528 164.01836657 16.98852896 162.46129315 16.98739624 160.90422058 C16.98682141 156.6730818 16.99859678 152.44205595 17.01254416 148.21094346 C17.02502981 143.79067444 17.0262203 139.37040295 17.02859497 134.95011902 C17.03481611 126.57785923 17.0512355 118.20565155 17.07129395 109.83341473 C17.09363323 100.30269947 17.10464142 90.77198174 17.11468482 81.24124682 C17.13560118 61.6341094 17.17078947 42.02701892 17.21533203 22.41992188 C16.51972168 22.44610596 15.82411133 22.47229004 15.10742188 22.49926758 C11.93529118 22.60363136 8.76352225 22.66837248 5.59033203 22.73242188 C3.94871094 22.79526367 3.94871094 22.79526367 2.27392578 22.859375 C-6.8440722 22.99752648 -6.8440722 22.99752648 -10.5012207 20.04296875 C-13.41814301 16.69223495 -13.75707512 14.85691805 -13.95654297 10.56835938 C-13.63919638 6.60152703 -11.89081308 4.47193176 -9.09542847 1.81335449 C-5.9587832 -0.07810238 -3.65259638 0.02527769 0 0 Z " fill="#000000" transform="translate(44.78466796875,-0.419921875)"/>
<path d="M0 0 C8.38860179 -0.09044315 16.77682324 -0.1637971 25.16578197 -0.20724869 C29.0613081 -0.22810547 32.95648277 -0.2563873 36.85180664 -0.30175781 C40.61250058 -0.34528508 44.3728569 -0.36915148 48.13378334 -0.37950897 C49.56711452 -0.38688812 51.00042765 -0.4012982 52.43361473 -0.42292023 C54.44408454 -0.45203957 56.45489555 -0.45363462 58.46557617 -0.45410156 C59.60919113 -0.46298401 60.75280609 -0.47186646 61.93107605 -0.48101807 C65.67039135 0.10507603 67.31491582 1.38656447 70 4 C71.21501158 6.43002317 71.12316211 7.96659025 71.12025452 10.68228149 C71.12231651 12.16308952 71.12231651 12.16308952 71.12442017 13.67381287 C71.11902725 15.30408165 71.11902725 15.30408165 71.11352539 16.96728516 C71.11367142 18.10874496 71.11381744 19.25020477 71.1139679 20.42625427 C71.11326906 24.21387609 71.10547798 28.00144923 71.09765625 31.7890625 C71.09579197 34.40937269 71.09436811 37.02968323 71.09336853 39.6499939 C71.09025752 45.85127161 71.08204722 52.05253174 71.07201904 58.2538017 C71.06085078 65.31296163 71.05534565 72.37212239 71.05032361 79.43128896 C71.03986443 93.95420172 71.02226942 108.47710061 71 123 C71.69561035 122.97381592 72.3912207 122.94763184 73.10791016 122.9206543 C76.28004085 122.81629051 79.45180978 122.7515494 82.625 122.6875 C83.71941406 122.64560547 84.81382812 122.60371094 85.94140625 122.56054688 C95.05940423 122.42239539 95.05940423 122.42239539 98.71655273 125.37695312 C101.63347504 128.72768693 101.97240715 130.56300383 102.171875 134.8515625 C101.85452841 138.81839484 100.10614511 140.94799012 97.3107605 143.60656738 C94.17411524 145.49802425 91.86792841 145.39464418 88.21533203 145.41992188 C87.54163574 145.42839142 86.86793945 145.43686096 86.17382812 145.44558716 C83.95162967 145.46894346 81.73012431 145.46997961 79.5078125 145.46875 C77.95848312 145.47585324 76.40915636 145.48355248 74.85983276 145.49182129 C71.61334929 145.50526348 68.36710897 145.50683649 65.12060547 145.50097656 C60.96865094 145.49508525 56.81786771 145.52564802 52.6661396 145.56609344 C49.46611288 145.59199873 46.26636697 145.59484528 43.06624985 145.59120178 C41.53608129 145.59289089 40.00589947 145.60251342 38.47583389 145.62034607 C36.33092182 145.64259115 34.18836401 145.63280983 32.04345703 145.61523438 C30.82530304 145.61728882 29.60714905 145.61934326 28.3520813 145.62145996 C23.87267993 144.79100021 22.22095347 143.17705881 19 140 C17.38570077 136.77140153 17.40429343 133.49006347 18 130 C19.73602105 126.97491855 21.83580137 124.58209931 25 123 C32.59 123 40.18 123 48 123 C48 89.67 48 56.34 48 22 C32.16 22 16.32 22 0 22 C0 14.74 0 7.48 0 0 Z " fill="#000000" transform="translate(379,367)"/>
<path d="M0 0 C1.30119781 0.00007553 2.60239563 0.00015106 3.94302368 0.00022888 C5.36875445 0.00533592 6.79448484 0.01055192 8.22021484 0.01586914 C9.67467195 0.01773392 11.12912969 0.01915754 12.58358765 0.02015686 C16.4140801 0.02397734 20.24453472 0.03380363 24.07501221 0.04486084 C27.98278288 0.05508504 31.89055966 0.05965665 35.79833984 0.06469727 C43.46762994 0.07542631 51.13688102 0.09301932 58.80615234 0.11352539 C58.80615234 7.37352539 58.80615234 14.63352539 58.80615234 22.11352539 C42.96615234 22.11352539 27.12615234 22.11352539 10.80615234 22.11352539 C10.80615234 55.44352539 10.80615234 88.77352539 10.80615234 123.11352539 C18.39615234 123.11352539 25.98615234 123.11352539 33.80615234 123.11352539 C40.67887962 128.84079812 40.67887962 128.84079812 41.18115234 133.86352539 C41.1567401 137.21410607 40.56216588 138.96247071 38.43115234 141.55102539 C34.53251367 145.35683934 32.61172004 145.24990792 27.24853516 145.30639648 C26.57513092 145.31457397 25.90172668 145.32275146 25.20791626 145.33117676 C22.97504566 145.35602698 20.74223871 145.37254741 18.50927734 145.38696289 C17.74632103 145.39228657 16.98336472 145.39761024 16.19728851 145.40309525 C12.1574148 145.42982774 8.11757197 145.44920055 4.07763672 145.46362305 C-0.08996776 145.48025371 -4.25677879 145.52501675 -8.42408371 145.57599449 C-11.63263833 145.60969852 -14.84100554 145.62120393 -18.04972076 145.62685013 C-19.58550313 145.63355608 -21.12127345 145.64876134 -22.65688324 145.67274094 C-24.81145744 145.70446099 -26.96390473 145.70442053 -29.11865234 145.69702148 C-30.34283875 145.70510834 -31.56702515 145.71319519 -32.82830811 145.7215271 C-37.33415026 144.90752397 -38.97256211 143.32424602 -42.19384766 140.11352539 C-43.82191596 136.03287352 -43.6692241 132.26443678 -42.00634766 128.23852539 C-39.43251072 125.22092347 -37.57592392 123.29066582 -33.53662109 122.77294922 C-32.05983887 122.79651489 -32.05983887 122.79651489 -30.55322266 122.82055664 C-29.48330078 122.83022461 -28.41337891 122.83989258 -27.31103516 122.84985352 C-25.64427734 122.88755859 -25.64427734 122.88755859 -23.94384766 122.92602539 C-22.25388672 122.94632813 -22.25388672 122.94632813 -20.52978516 122.96704102 C-17.75065501 123.00236894 -14.97249403 123.05170019 -12.19384766 123.11352539 C-12.19753483 122.51514768 -12.201222 121.91676996 -12.2050209 121.30025959 C-12.29338241 106.73619248 -12.35956232 92.17214121 -12.40109634 77.60786915 C-12.42171614 70.56465334 -12.4498253 63.52161654 -12.49560547 56.47851562 C-12.53975269 49.68339527 -12.56297587 42.88846113 -12.57335663 36.09320641 C-12.58075581 33.49880735 -12.59520436 30.90441864 -12.61676788 28.31009865 C-12.64574219 24.68030294 -12.64980599 21.05127919 -12.64794922 17.42138672 C-12.66233032 16.34532669 -12.67671143 15.26926666 -12.69152832 14.16059875 C-12.65108277 6.86884304 -12.65108277 6.86884304 -10.29046631 2.96928406 C-6.77810975 -0.13957225 -4.62703292 -0.0089325 0 0 Z " fill="#000000" transform="translate(74.19384765625,366.886474609375)"/>
<path d="M0 0 C3.73290476 0.02670175 5.0381884 0.18281943 8.3125 2.1875 C11.60842563 5.80238618 11.38872021 8.14878104 11.42700195 12.9777832 C11.43357315 13.6625473 11.44014435 14.3473114 11.44691467 15.05282593 C11.46665361 17.32297878 11.47831177 19.59306546 11.48828125 21.86328125 C11.49235678 22.63851828 11.4964323 23.4137553 11.50063133 24.21248436 C11.52149505 28.31605132 11.53579519 32.41958482 11.54516602 36.52319336 C11.55622862 40.7602713 11.59062537 44.99682378 11.63033772 49.23371601 C11.65649325 52.49284334 11.66485689 55.75184529 11.66844749 59.01106834 C11.67331659 60.57277155 11.68493989 62.13446904 11.70348549 63.69606972 C11.72785488 65.88414658 11.72691682 68.07086196 11.7199707 70.2590332 C11.72583694 71.50320511 11.73170319 72.74737701 11.73774719 74.0292511 C11.159678 77.92049857 9.98431351 79.53948528 7.25 82.3125 C3.08579579 84.78851332 -0.11865432 84.47033642 -4.75 83.3125 C-7.45567626 81.48910948 -9.28728718 80.23792564 -10.75 77.3125 C-10.75 69.3925 -10.75 61.4725 -10.75 53.3125 C-47.38 53.3125 -84.01 53.3125 -121.75 53.3125 C-121.75 45.7225 -121.75 38.1325 -121.75 30.3125 C-85.12 30.3125 -48.49 30.3125 -10.75 30.3125 C-10.75 22.3925 -10.75 14.4725 -10.75 6.3125 C-4.56582953 0.12832953 -4.56582953 0.12832953 0 0 Z " fill="#000000" transform="translate(500.75,254.6875)"/>
<path d="M0 0 C3.73290476 0.02670175 5.0381884 0.18281943 8.3125 2.1875 C15.76166434 10.35755122 11.25 14.99081419 11.25 30.3125 C47.88 30.3125 84.51 30.3125 122.25 30.3125 C122.25 37.9025 122.25 45.4925 122.25 53.3125 C85.62 53.3125 48.99 53.3125 11.25 53.3125 C11.25 61.2325 11.25 69.1525 11.25 77.3125 C6.42714286 83.34107143 6.42714286 83.34107143 2.25 84.3125 C-3.05379889 84.12307861 -5.94058032 83.00987793 -9.75 79.3125 C-11.19691898 76.41866203 -10.90938654 73.88044252 -10.94287109 70.6472168 C-10.95104858 69.9624527 -10.95922607 69.2776886 -10.96765137 68.57217407 C-10.99249948 66.3020312 -11.00902 64.03195085 -11.0234375 61.76171875 C-11.02876118 60.98648172 -11.03408485 60.2112447 -11.03956985 59.41251564 C-11.06629929 55.30895603 -11.08567454 51.20542682 -11.10009766 47.10180664 C-11.11674278 42.86460829 -11.16151891 38.62818816 -11.2124691 34.39128399 C-11.24613655 31.13215753 -11.25767444 27.87321589 -11.26332474 24.61393166 C-11.270039 23.05220405 -11.28526588 21.49048868 -11.30921555 19.92893028 C-11.34086174 17.74063216 -11.34090629 15.55443396 -11.33349609 13.3659668 C-11.34158295 12.12179489 -11.3496698 10.87762299 -11.35800171 9.5957489 C-10.58766274 5.43586818 -8.93665279 3.98902578 -5.75 1.3125 C-4.10962605 -0.32787395 -2.25523159 0.06338669 0 0 Z " fill="#000000" transform="translate(10.75,254.6875)"/>
<path d="M0 0 C3.83308654 1.44805492 4.8126414 2.6752451 6.875 6.25 C8.21685027 10.72283424 8.50690719 12.55462378 7 17 C0.82528477 24.8303417 -6.59594976 31.75898408 -13.640625 38.80859375 C-14.73686565 39.90805745 -15.83303531 41.00759193 -16.92913818 42.10719299 C-19.20653662 44.39052453 -21.48593601 46.6718363 -23.76660156 48.9519043 C-26.68229937 51.86749971 -29.59100765 54.789965 -32.49808121 57.71415615 C-34.75091828 59.97811668 -37.0082907 62.23751269 -39.26696014 64.49565315 C-40.3418235 65.57169205 -41.4150762 66.64934246 -42.48664093 67.72866631 C-43.98149044 69.23334181 -45.48257724 70.73151631 -46.98535156 72.22827148 C-47.83534729 73.07969223 -48.68534302 73.93111298 -49.56109619 74.80833435 C-53.13293019 78.01808205 -56.42133586 80.42828042 -61.3125 80.625 C-64.97086008 80.40301788 -66.76934325 79.76324954 -69.45703125 77.28125 C-70.14595459 76.64654785 -70.83487793 76.0118457 -71.54467773 75.35791016 C-76.26828308 70.82170847 -80.96336489 66.26137707 -85.60205078 61.63818359 C-87.38523325 59.86482311 -89.17881391 58.10241234 -90.97265625 56.33984375 C-92.11523817 55.20378321 -93.25718835 54.06708688 -94.3984375 52.9296875 C-94.93173676 52.40873505 -95.46503601 51.88778259 -96.01449585 51.3510437 C-98.90940652 48.43856633 -100.90913771 45.98932072 -102 42 C-101.81057861 36.69620111 -100.69737793 33.80941968 -97 30 C-94.72885524 28.86442762 -93.27706381 28.76915682 -90.75 28.6875 C-90.00234375 28.65011719 -89.2546875 28.61273438 -88.484375 28.57421875 C-81.03199111 29.85143549 -75.64506082 37.12585498 -70.625 42.25 C-69.79355469 43.09046875 -68.96210938 43.9309375 -68.10546875 44.796875 C-66.06568453 46.86010502 -64.03073714 48.92787123 -62 51 C-58.30739917 49.45310503 -55.97502183 47.21115919 -53.17138672 44.38256836 C-52.70584381 43.91571121 -52.2403009 43.44885406 -51.76065063 42.96784973 C-50.2290053 41.4297339 -48.70446079 39.88476955 -47.1796875 38.33984375 C-46.11453451 37.26841807 -45.04886321 36.19750743 -43.98269653 35.12709045 C-41.1811687 32.31227654 -38.38526716 29.49194562 -35.59094238 26.66998291 C-31.11246871 22.14833977 -26.62721547 17.63344588 -22.13873672 13.12173653 C-20.57087442 11.54363637 -19.00646017 9.96217609 -17.44235229 8.38035583 C-16.48495792 7.41613541 -15.52745452 6.45202322 -14.56982422 5.48803711 C-13.73361542 4.64357529 -12.89740662 3.79911346 -12.03585815 2.92906189 C-8.37679515 -0.53805539 -4.85097862 -0.49442667 0 0 Z " fill="#32CCCC" transform="translate(303,287)"/>
</svg>
